<?xml version="1.0" encoding="iso-8859-1"?>
<!-- Generator: Adobe Illustrator 18.0.0, SVG Export Plug-In . SVG Version: 6.00 Build 0)  -->
<!DOCTYPE svg PUBLIC "-//W3C//DTD SVG 1.1//EN" "http://www.w3.org/Graphics/SVG/1.1/DTD/svg11.dtd">
<svg version="1.1" id="Capa_1" xmlns="http://www.w3.org/2000/svg" xmlns:xlink="http://www.w3.org/1999/xlink" x="0px" y="0px"
	 viewBox="0 0 368.416 368.416" style="enable-background:new 0 0 368.416 368.416;" xml:space="preserve">
<g>
	<path d="M136.601,59.265c2.998,0,6.02,0.047,9.043,0.132c15.718,0.443,25,13.955,25,25H141.82c-3.625,0-4.047,2.514-4.047,3.264
		s0.411,3.182,4.039,3.182c3.498,0,182.131,0,182.131,0c13.516,0,24.473,10.955,24.473,24.471c0,12.4-9.433,24.246-21.188,24.246
		c0,0-0.238,0-0.688,0c-8.365,0-90.303-0.064-111.269-0.076c-0.047-0.002-0.09-0.014-0.135-0.014h-4.618
		c-2.201,0-3.986,1.783-3.986,3.984s1.785,3.984,3.986,3.984h1.194c13.328,0.219,24.067,11.084,24.067,24.465
		c0,13.514-10.956,24.471-24.472,24.471l-17.721,0.02c-2.168,0-3.926,1.758-3.926,3.926c0,2.166,1.758,3.922,3.926,3.922
		l1.013-0.008c12.306,0,20.893,11.957,20.893,24.256c0,13.518-10.955,24.422-24.471,24.422l-17.939,0.049
		c-2.108,0-3.818,1.711-3.818,3.82c0,2.109,1.71,3.818,3.818,3.818l1.366-0.014c11.191,0,19.771,12.107,19.771,24.016
		c0,13.516-10.957,24.473-24.474,24.473l-44.958,0.078C82.975,309.151,20,292.889,20,192.78C20,79.005,74.987,59.265,136.601,59.265
		 M136.601,39.265c-26.643,0-65.449,3.025-94.729,29.175C13.696,93.606,0,134.278,0,192.78c0,50.686,14.908,88.171,44.311,111.416
		c20.651,16.326,48.48,24.955,80.48,24.955l44.993-0.078c24.488,0,44.438-19.95,44.438-44.473c0-5.573-1.071-11.22-3.065-16.508
		c14.43-7.351,24.337-22.344,24.337-39.603c0-6.151-1.166-12.015-3.27-17.343c14.004-7.494,23.557-22.274,23.557-39.243
		c0-4.251-0.594-8.414-1.742-12.394c5.01,0.004,10.178,0.008,15.338,0.012c26.389,0.02,52.621,0.038,57.164,0.038
		c0.233,0,0.461,0,0.688-0.001v0.001c22.326,0,41.188-20.262,41.188-44.246c0-24.522-19.95-44.471-44.473-44.471H188.375
		c-5.48-16.374-20.593-30.829-42.167-31.438C142.906,39.312,139.675,39.265,136.601,39.265L136.601,39.265z"/>
</g>
<g>
</g>
<g>
</g>
<g>
</g>
<g>
</g>
<g>
</g>
<g>
</g>
<g>
</g>
<g>
</g>
<g>
</g>
<g>
</g>
<g>
</g>
<g>
</g>
<g>
</g>
<g>
</g>
<g>
</g>
</svg>
