<?xml version="1.0" encoding="iso-8859-1"?>
<!-- Generator: Adobe Illustrator 19.0.0, SVG Export Plug-In . SVG Version: 6.00 Build 0)  -->
<svg version="1.1" id="Layer_1" xmlns="http://www.w3.org/2000/svg" xmlns:xlink="http://www.w3.org/1999/xlink" x="0px" y="0px"
	 viewBox="0 0 413.43 413.43" style="enable-background:new 0 0 413.43 413.43;" xml:space="preserve">
<g>
	<g>
		<path d="M406.93,143.729h-27.879c-3.184,0-6.283-0.901-8.963-2.607c-2.697-1.71-4.836-4.135-6.194-7.019
			c-1.73-3.683-4.643-8.614-8.654-14.651c-6.562-9.872-15.715-17.754-26.471-22.796l-64.94-30.437
			c-13.387-6.286-29.304-4.137-40.546,5.472L211.115,82.08c-5.643,4.816-13.094,7.006-20.447,6.004
			c-1.383-0.189-2.775-0.285-4.135-0.285c-16.657,0-30.209,13.573-30.209,30.257c0,3.261,0.334,6.467,0.997,9.597H33.673
			c-8.996,0-17.454,3.504-23.816,9.867C3.499,143.89,0,152.346,0,161.336c0,18.568,15.106,33.674,33.673,33.675l107.435-0.002
			c-4.455,5.71-7.111,12.888-7.111,20.675c0,16.101,11.357,29.599,26.481,32.903c-4.828,5.829-7.733,13.306-7.733,21.449
			c0,14.736,9.514,27.292,22.722,31.847c-4.176,5.05-6.727,11.442-6.835,18.385c-0.128,8.195,2.992,15.905,8.786,21.71
			c5.675,5.675,13.217,8.798,21.241,8.798h118.905c13.118,0,26.153-1.866,38.745-5.546c16.451-4.808,33.482-7.246,50.621-7.246
			c3.59,0,6.5-2.91,6.5-6.5V150.229C413.43,146.639,410.52,143.729,406.93,143.729z M400.432,325.094
			c-16.174,0.543-32.213,3.112-47.768,7.658c-11.407,3.334-23.216,5.024-35.099,5.024H198.659c-4.552,0-8.829-1.771-12.044-4.986
			c-3.285-3.292-5.057-7.669-4.985-12.32c0.145-9.239,8.022-16.756,17.559-16.756c3.59,0,6.5-2.911,6.5-6.5s-2.909-6.499-6.499-6.5
			l-12.768-0.002c-11.402,0-20.677-9.275-20.677-20.676s9.276-20.676,20.676-20.676c3.59,0,6.5-2.91,6.5-6.5
			c0-3.59-2.91-6.5-6.5-6.5h-18.748c-11.401,0-20.676-9.275-20.676-20.676c0-11.363,9.214-20.615,20.563-20.676h20
			c3.59,0,6.5-2.91,6.5-6.5c0-3.59-2.91-6.5-6.5-6.5L33.674,182.01c-11.4,0-20.674-9.275-20.674-20.674
			c0-5.522,2.15-10.717,6.054-14.628c3.903-3.903,9.097-6.055,14.62-6.055h234.358c3.59,0,6.5-2.91,6.5-6.5c0-3.59-2.91-6.5-6.5-6.5
			h-97.298c-0.935-3.089-1.408-6.303-1.408-9.597c0-9.516,7.72-17.257,17.209-17.257c0.772,0,1.571,0.056,2.375,0.166
			c11.019,1.501,22.186-1.778,30.646-8.997l12.172-10.393c7.371-6.3,17.804-7.708,26.581-3.587l64.944,30.439
			c8.6,4.031,15.918,10.331,21.161,18.22c3.608,5.428,6.277,9.921,7.719,12.99c2.414,5.125,6.212,9.43,10.985,12.458
			c4.761,3.03,10.274,4.635,15.935,4.635h21.379V325.094z"/>
	</g>
</g>
<g>
</g>
<g>
</g>
<g>
</g>
<g>
</g>
<g>
</g>
<g>
</g>
<g>
</g>
<g>
</g>
<g>
</g>
<g>
</g>
<g>
</g>
<g>
</g>
<g>
</g>
<g>
</g>
<g>
</g>
</svg>
